<svg width="22" height="24" viewBox="0 0 22 24" fill="none" xmlns="http://www.w3.org/2000/svg">
<path d="M21.7753 13.894C22.4913 7.87226 21.4313 4.07062 19.5193 2.35113L19.5203 2.35014C16.4343 -0.586275 6.01222 -1.02089 2.3202 2.48202C0.662199 4.19551 0.0781968 6.71029 0.0141966 9.82354C-0.0498036 12.9378 -0.125804 18.7717 5.31521 20.3543H5.32021L5.31521 22.7711C5.31521 22.7711 5.27821 23.7503 5.90422 23.9471C6.62022 24.1789 6.94422 23.7243 9.17123 21.0666C12.8952 21.3893 15.7552 20.65 16.0802 20.5421C16.8323 20.2903 21.0873 19.7278 21.7753 13.894ZM9.53823 19.3661C9.53823 19.3661 7.18122 22.3025 6.44822 23.0649C6.20822 23.3126 5.94522 23.2897 5.94922 22.7981C5.94922 22.4754 5.96722 18.7856 5.96722 18.7856C1.3542 17.4648 1.6262 12.4972 1.6762 9.89848C1.7262 7.29877 2.2022 5.16965 3.60621 3.73591C6.84522 0.70159 15.9823 1.37999 18.3103 3.56606C21.1563 6.08684 20.1433 13.2086 20.1493 13.4513C19.5643 18.321 16.1162 18.6298 15.4822 18.8406C15.2112 18.9305 12.6962 19.5769 9.53823 19.3661Z" fill="#E31F26"/>
<path d="M10.8425 4.30664C10.4575 4.30664 10.4575 4.90611 10.8425 4.91111C13.8295 4.93409 16.2895 7.01425 16.3165 10.8299C16.3165 11.2325 16.9065 11.2275 16.9015 10.8249H16.9005C16.8685 6.71352 14.1825 4.32962 10.8425 4.30664Z" fill="#E31F26"/>
<path d="M14.7711 10.197C14.7621 10.5947 15.3511 10.6137 15.3561 10.211C15.4051 7.94403 14.0061 6.07667 11.3771 5.87985C10.9921 5.85187 10.9521 6.45634 11.3361 6.48432C13.6161 6.65716 14.8171 8.21179 14.7711 10.197Z" fill="#E31F26"/>
<path d="M14.1414 12.776C13.6474 12.4903 13.1444 12.6681 12.9364 12.9489L12.5014 13.5114C12.2804 13.7971 11.8674 13.7592 11.8674 13.7592C8.85334 12.9629 8.04734 9.81165 8.04734 9.81165C8.04734 9.81165 8.01034 9.38502 8.28634 9.15623L8.83034 8.70662C9.10234 8.49081 9.27434 7.97127 8.99734 7.46072C8.25734 6.1249 7.76034 5.66431 7.50734 5.31062C7.24134 4.97791 6.84134 4.90298 6.42534 5.12778H6.41634C5.55133 5.63333 4.60433 6.5795 4.90733 7.55364C5.42433 8.58073 6.37434 11.8548 9.40235 14.3287C10.8253 15.4986 13.0774 16.6976 14.0334 16.9743L14.0424 16.9883C14.9844 17.302 15.9004 16.3189 16.3894 15.4287V15.4217C16.6064 14.9911 16.5344 14.5834 16.2174 14.3167C15.6554 13.7692 14.8074 13.1647 14.1414 12.776Z" fill="#E31F26"/>
<path d="M11.7895 8.11002C12.7505 8.16597 13.2165 8.66753 13.2665 9.69762C13.2845 10.1003 13.8695 10.0723 13.8515 9.66964C13.7875 8.32483 13.0855 7.57549 11.8215 7.50555C11.4365 7.48257 11.4005 8.08704 11.7895 8.11002Z" fill="#E31F26"/>
</svg>
