<svg width="24" height="24" viewBox="0 0 24 24" fill="none" xmlns="http://www.w3.org/2000/svg">
<path d="M17.5304 13.9545L17.5214 14.0295C15.3224 12.9335 15.0924 12.7875 14.8084 13.2135C14.6114 13.5085 14.0374 14.1775 13.8644 14.3755C13.6894 14.5705 13.5154 14.5855 13.2184 14.4505C12.9184 14.3005 11.9555 13.9855 10.8155 12.9655C9.9275 12.1705 9.33152 11.1955 9.15552 10.8955C8.86252 10.3896 9.47551 10.3176 10.0335 9.26157C10.1335 9.05158 10.0825 8.88658 10.0085 8.73758C9.9335 8.58758 9.33651 7.11761 9.08652 6.53162C8.84652 5.94763 8.59953 6.02163 8.41453 6.02163C7.83854 5.97163 7.41755 5.97963 7.04656 6.36562C5.43259 8.13959 5.83958 9.96956 7.22055 11.9155C9.9345 15.4675 11.3805 16.1214 14.0244 17.0294C14.7384 17.2564 15.3894 17.2244 15.9044 17.1504C16.4784 17.0594 17.6714 16.4294 17.9204 15.7245C18.1754 15.0195 18.1754 14.4345 18.1004 14.2995C18.0264 14.1645 17.8304 14.0895 17.5304 13.9545Z" fill="#E31F26"/>
<path d="M20.5196 3.44937C12.8308 -3.9835 0.105998 1.40741 0.100998 11.8932C0.100998 13.9892 0.649988 16.0331 1.69597 17.8381L0 24L6.33489 22.348C14.2397 26.618 23.9956 20.9481 23.9996 11.8992C23.9996 8.72327 22.7596 5.73433 20.5046 3.48837L20.5196 3.44937ZM22.0016 11.8662C21.9956 19.4991 13.6168 24.266 6.98987 20.3701L6.62988 20.1561L2.87995 21.1311L3.88493 17.4861L3.64593 17.1111C-0.477992 10.5462 4.25992 1.9664 12.0718 1.9664C14.7257 1.9664 17.2167 3.00138 19.0927 4.87634C20.9676 6.73531 22.0016 9.22627 22.0016 11.8662Z" fill="#E31F26"/>
</svg>
