<svg width="24" height="20" viewBox="0 0 24 20" fill="none" xmlns="http://www.w3.org/2000/svg">
<path d="M23.6294 0.54755C23.3362 0.19442 22.8971 0 22.3929 0C22.1188 0 21.8284 0.056811 21.5299 0.169171L1.21439 7.80764C0.136268 8.21289 -0.00893447 8.82104 0.000403878 9.14747C0.00974222 9.47391 0.189734 10.073 1.28946 10.4177C1.29606 10.4197 1.30265 10.4217 1.30924 10.4235L5.52322 11.6113L7.80214 18.03C8.11287 18.9051 8.81032 19.4487 9.62257 19.4487C10.1347 19.4487 10.6384 19.2373 11.0794 18.8376L13.6859 16.4737L17.4664 19.4721C17.4668 19.4725 17.4673 19.4726 17.4677 19.473L17.5036 19.5015C17.5069 19.504 17.5104 19.5067 17.5137 19.5093C17.9339 19.8303 18.3926 19.9998 18.8406 20H18.8408C19.7162 20 20.4133 19.3617 20.6164 18.3741L23.945 2.18497C24.0787 1.53516 23.9667 0.953704 23.6294 0.54755ZM6.93294 11.3856L15.063 7.29471L10.0007 12.5929C9.91774 12.6797 9.85896 12.7859 9.83003 12.9015L8.8539 16.796L6.93294 11.3856ZM10.1267 17.8186C10.093 17.8491 10.0591 17.8764 10.0252 17.9014L10.9309 14.2886L12.5783 15.5953L10.1267 17.8186ZM22.5668 1.90993L19.2381 18.0993C19.2061 18.2542 19.1038 18.6147 18.8406 18.6147C18.7106 18.6147 18.5473 18.5449 18.3801 18.4181L14.0962 15.0206C14.0956 15.0201 14.0949 15.0196 14.0942 15.0192L11.5452 12.9975L18.8659 5.33555C19.1003 5.09027 19.1215 4.71459 18.9163 4.44515C18.7108 4.1757 18.3386 4.09093 18.0341 4.24423L5.99343 10.303L1.72214 9.09932L22.0314 1.4632C22.203 1.39863 22.3227 1.38511 22.3929 1.38511C22.4359 1.38511 22.5124 1.39016 22.5408 1.4246C22.5782 1.46951 22.6258 1.62263 22.5668 1.90993Z" fill="#E31F26"/>
</svg>
