<svg width="13" height="13" viewBox="0 0 13 13" fill="none" xmlns="http://www.w3.org/2000/svg">
<path d="M11.9737 8.55948C11.1718 8.55948 10.3863 8.43427 9.64122 8.18795C9.2779 8.06274 8.866 8.15922 8.62654 8.40281L7.1507 9.51739C5.45795 8.61423 4.37416 7.53111 3.48197 5.84933L4.56644 4.40838C4.83944 4.13471 4.93729 3.73579 4.82029 3.36154C4.57327 2.613 4.44738 1.82684 4.44738 1.02632C4.44738 0.460463 3.98692 0 3.42107 0H1.02632C0.460463 0 0 0.460463 0 1.02632C0 7.62826 5.37174 13 11.9737 13C12.5395 13 13 12.5395 13 11.9737V9.5858C13 9.01994 12.5395 8.55948 11.9737 8.55948ZM12.3158 11.9737C12.3158 12.1625 12.1619 12.3158 11.9737 12.3158C5.74872 12.3158 0.6842 7.25128 0.6842 1.02632C0.6842 0.837474 0.838148 0.6842 1.02632 0.6842H3.42107C3.60923 0.6842 3.76318 0.837474 3.76318 1.02632C3.76318 1.90006 3.90004 2.75807 4.16822 3.57158C4.2079 3.69952 4.17576 3.83159 4.05055 3.96158L2.80528 5.61052C2.7266 5.7152 2.71429 5.85546 2.77381 5.97178C3.78849 7.96489 5.02077 9.19785 7.02825 10.2262C7.14387 10.2864 7.2855 10.2741 7.39019 10.1948L9.07472 8.91802C9.16642 8.8277 9.30119 8.79624 9.423 8.83659C10.2413 9.10686 11.0993 9.24368 11.9737 9.24368C12.1619 9.24368 12.3159 9.39696 12.3159 9.5858V11.9737H12.3158Z" fill="#E31F26"/>
</svg>
