<svg width="1282" height="11" viewBox="0 0 1282 11" fill="none" xmlns="http://www.w3.org/2000/svg">
<path opacity="0.5" d="M1 9.8457L23.3058 2.2964C27.6927 0.811648 32.4591 0.895454 36.7911 2.53352L52.1081 8.32526C56.6664 10.0489 61.6972 10.0489 66.2555 8.32526L81.5725 2.53352C85.9046 0.895454 90.6709 0.811647 95.0579 2.2964L110.952 7.6757C115.111 9.08315 119.617 9.08316 123.775 7.6757L139.669 2.2964C144.056 0.811648 148.823 0.895454 153.155 2.53352L168.472 8.32526C173.03 10.0489 178.061 10.0489 182.619 8.32526L197.936 2.53352C202.268 0.895454 207.035 0.811647 211.422 2.2964L227.316 7.6757C231.474 9.08315 235.98 9.08316 240.139 7.6757L256.033 2.2964C260.42 0.811648 265.186 0.895454 269.518 2.53352L284.835 8.32526C289.394 10.0489 294.424 10.0489 298.983 8.32526L314.3 2.53352C318.632 0.895454 323.398 0.811647 327.785 2.2964L343.679 7.6757C347.838 9.08315 352.344 9.08316 356.503 7.6757L372.397 2.2964C376.784 0.811648 381.55 0.895454 385.882 2.53352L401.199 8.32526C405.757 10.0489 410.788 10.0489 415.346 8.32526L430.663 2.53352C434.996 0.895454 439.762 0.811647 444.149 2.2964L460.043 7.6757C464.201 9.08315 468.708 9.08316 472.866 7.6757L488.76 2.2964C493.147 0.811648 497.914 0.895454 502.246 2.53352L517.563 8.32526C522.121 10.0489 527.152 10.0489 531.71 8.32526L547.027 2.53352C551.359 0.895454 556.125 0.811647 560.512 2.2964L576.407 7.6757C580.565 9.08315 585.071 9.08316 589.23 7.6757L605.124 2.2964C609.511 0.811648 614.277 0.895454 618.609 2.53352L633.926 8.32526C638.485 10.0489 643.515 10.0489 648.074 8.32526L663.391 2.53352C667.723 0.895454 672.489 0.811647 676.876 2.2964L692.77 7.6757C696.929 9.08315 701.435 9.08316 705.593 7.6757L721.488 2.2964C725.875 0.811648 730.641 0.895454 734.973 2.53352L750.29 8.32526C754.848 10.0489 759.879 10.0489 764.437 8.32526L779.754 2.53352C784.086 0.895454 788.853 0.811647 793.24 2.2964L809.134 7.6757C813.292 9.08315 817.799 9.08316 821.957 7.6757L837.851 2.2964C842.238 0.811648 847.005 0.895454 851.337 2.53352L866.654 8.32526C871.212 10.0489 876.243 10.0489 880.801 8.32526L896.118 2.53352C900.45 0.895454 905.216 0.811647 909.603 2.2964L925.497 7.6757C929.656 9.08315 934.162 9.08316 938.321 7.6757L954.215 2.2964C958.602 0.811648 963.368 0.895454 967.7 2.53352L983.017 8.32526C987.576 10.0489 992.606 10.0489 997.165 8.32526L1012.48 2.53352C1016.81 0.895454 1021.58 0.811647 1025.97 2.2964L1041.86 7.6757C1046.02 9.08315 1050.53 9.08316 1054.68 7.6757L1070.58 2.2964C1074.97 0.811648 1079.73 0.895454 1084.06 2.53352L1099.38 8.32526C1103.94 10.0489 1108.97 10.0489 1113.53 8.32526L1128.85 2.53352C1133.18 0.895454 1137.94 0.811647 1142.33 2.2964L1158.22 7.6757C1162.38 9.08315 1166.89 9.08316 1171.05 7.6757L1186.94 2.2964C1191.33 0.811648 1196.1 0.895454 1200.43 2.53352L1215.74 8.32526C1220.3 10.0489 1225.33 10.0489 1229.89 8.32526L1245.21 2.53352C1249.54 0.895454 1254.31 0.811647 1258.69 2.2964L1281 9.8457" stroke="#7798B5" stroke-miterlimit="3.52509" stroke-linecap="round"/>
</svg>
